# xmcd
#
# Track frame offsets:
#	150
#	19314
#	40155
#	54857
#	66740
#	93163
#	122707
#	144292
#	159121
#	172129
#
# Disc length: 2481 seconds
# Revision: 0
# Processed by: cddbd v1.5.2PL0 Copyright (c) Steve Scherf et al.
# Submitted via: dBpowerAMP V12.0
#
DISCID=8109af0a
DTITLE=Jerry Jeff Walker - Contrary to Ordinary [MCA] (L)
DYEAR=1976
DGENRE=Country
TTITLE0=Tryin' to Hold the Wind up With a Sail
TTITLE1=Saturday Night Special
TTITLE2=Suckin' a big Bottle of Gin
TTITLE3=What Are We Doing
TTITLE4=Till We Gain Control Again
TTITLE5=Contrary to Ordinary
TTITLE6=We Were Kinda Crazy Then
TTITLE7=Deeper Than Love
TTITLE8=I Spent All My Money Lovin' You
TTITLE9=Carry Me Away
EXTD=
EXTT0=
EXTT1=
EXTT2=
EXTT3=
EXTT4=
EXTT5=
EXTT6=
EXTT7=
EXTT8=
EXTT9=
PLAYORDER=
